<mxfile host="65bd71144e">
    <diagram id="cCf10eO930V626zrxMhN" name="Процесс">
        <mxGraphModel dx="1002" dy="722" grid="1" gridSize="10" guides="1" tooltips="1" connect="0" arrows="1" fold="1" page="1" pageScale="1" pageWidth="1654" pageHeight="1169" math="0" shadow="0">
            <root>
                <mxCell id="0"/>
                <mxCell id="1" parent="0"/>
                <mxCell id="3" value="Player" style="rounded=1;whiteSpace=wrap;html=1;" parent="1" vertex="1">
                    <mxGeometry x="270" y="170" width="120" height="60" as="geometry"/>
                </mxCell>
                <mxCell id="8" style="edgeStyle=none;html=1;exitX=1;exitY=0.5;exitDx=0;exitDy=0;" parent="1" source="6" target="7" edge="1">
                    <mxGeometry relative="1" as="geometry"/>
                </mxCell>
                <mxCell id="6" value="Игра" style="ellipse;whiteSpace=wrap;html=1;" parent="1" vertex="1">
                    <mxGeometry x="100" y="300" width="120" height="80" as="geometry"/>
                </mxCell>
                <mxCell id="10" style="edgeStyle=none;html=1;exitX=1;exitY=0.5;exitDx=0;exitDy=0;" parent="1" source="7" target="9" edge="1">
                    <mxGeometry relative="1" as="geometry"/>
                </mxCell>
                <mxCell id="7" value="Определяется первый игрок" style="rounded=0;whiteSpace=wrap;html=1;" parent="1" vertex="1">
                    <mxGeometry x="270" y="310" width="120" height="60" as="geometry"/>
                </mxCell>
                <mxCell id="12" value="" style="edgeStyle=none;html=1;" parent="1" source="9" target="11" edge="1">
                    <mxGeometry relative="1" as="geometry"/>
                </mxCell>
                <mxCell id="9" value="Открывается случайным образом ряд карт" style="rounded=0;whiteSpace=wrap;html=1;" parent="1" vertex="1">
                    <mxGeometry x="430" y="310" width="120" height="60" as="geometry"/>
                </mxCell>
                <mxCell id="14" value="" style="edgeStyle=none;html=1;" parent="1" source="11" target="13" edge="1">
                    <mxGeometry relative="1" as="geometry"/>
                </mxCell>
                <mxCell id="11" value="Каждому игроку предагается на выбор одна из двух карт монумента" style="rounded=0;whiteSpace=wrap;html=1;" parent="1" vertex="1">
                    <mxGeometry x="580" y="310" width="120" height="60" as="geometry"/>
                </mxCell>
                <mxCell id="28" value="" style="edgeStyle=none;html=1;fontSize=19;" parent="1" source="13" target="27" edge="1">
                    <mxGeometry relative="1" as="geometry"/>
                </mxCell>
                <mxCell id="13" value="Начало цикла игры" style="rounded=0;whiteSpace=wrap;html=1;" parent="1" vertex="1">
                    <mxGeometry x="730" y="305" width="120" height="60" as="geometry"/>
                </mxCell>
                <mxCell id="20" value="" style="edgeStyle=none;html=1;" parent="1" source="16" target="19" edge="1">
                    <mxGeometry relative="1" as="geometry"/>
                </mxCell>
                <mxCell id="23" value="" style="edgeStyle=none;html=1;fontSize=19;" parent="1" source="16" target="22" edge="1">
                    <mxGeometry relative="1" as="geometry"/>
                </mxCell>
                <mxCell id="16" value="Игрок Главный Строитель?" style="rhombus;whiteSpace=wrap;html=1;rounded=0;" parent="1" vertex="1">
                    <mxGeometry x="1079" y="295" width="170" height="80" as="geometry"/>
                </mxCell>
                <mxCell id="19" value="Игрок выбирает ресурс и нажимает &quot;готов&quot;" style="whiteSpace=wrap;html=1;rounded=0;" parent="1" vertex="1">
                    <mxGeometry x="1309" y="305" width="120" height="60" as="geometry"/>
                </mxCell>
                <mxCell id="21" value="&lt;font style=&quot;font-size: 19px&quot;&gt;да&lt;/font&gt;" style="text;html=1;strokeColor=none;fillColor=none;align=center;verticalAlign=middle;whiteSpace=wrap;rounded=0;" parent="1" vertex="1">
                    <mxGeometry x="1239" y="295" width="60" height="30" as="geometry"/>
                </mxCell>
                <mxCell id="36" value="" style="edgeStyle=none;html=1;fontSize=20;" parent="1" source="22" target="35" edge="1">
                    <mxGeometry relative="1" as="geometry"/>
                </mxCell>
                <mxCell id="22" value="Ставит выбранный ресурс на свободное место" style="whiteSpace=wrap;html=1;rounded=0;" parent="1" vertex="1">
                    <mxGeometry x="1119" y="450" width="145" height="70" as="geometry"/>
                </mxCell>
                <mxCell id="25" value="" style="endArrow=classic;html=1;fontSize=19;exitX=0.013;exitY=0.98;exitDx=0;exitDy=0;exitPerimeter=0;entryX=1.005;entryY=0.037;entryDx=0;entryDy=0;entryPerimeter=0;" parent="1" source="19" target="22" edge="1">
                    <mxGeometry width="50" height="50" relative="1" as="geometry">
                        <mxPoint x="1169" y="435" as="sourcePoint"/>
                        <mxPoint x="1199" y="395" as="targetPoint"/>
                    </mxGeometry>
                </mxCell>
                <mxCell id="29" value="" style="edgeStyle=none;html=1;fontSize=19;" parent="1" source="27" target="16" edge="1">
                    <mxGeometry relative="1" as="geometry"/>
                </mxCell>
                <mxCell id="43" value="" style="edgeStyle=none;html=1;fontSize=20;" parent="1" source="27" target="42" edge="1">
                    <mxGeometry relative="1" as="geometry"/>
                </mxCell>
                <mxCell id="27" value="Есть свободные клетки?" style="rhombus;whiteSpace=wrap;html=1;rounded=0;" parent="1" vertex="1">
                    <mxGeometry x="870" y="295" width="170" height="80" as="geometry"/>
                </mxCell>
                <mxCell id="30" value="&lt;font style=&quot;font-size: 19px&quot;&gt;да&lt;/font&gt;" style="text;html=1;strokeColor=none;fillColor=none;align=center;verticalAlign=middle;whiteSpace=wrap;rounded=0;" parent="1" vertex="1">
                    <mxGeometry x="1030" y="305" width="60" height="30" as="geometry"/>
                </mxCell>
                <mxCell id="31" value="&lt;font style=&quot;font-size: 19px&quot;&gt;да&lt;/font&gt;" style="text;html=1;strokeColor=none;fillColor=none;align=center;verticalAlign=middle;whiteSpace=wrap;rounded=0;" parent="1" vertex="1">
                    <mxGeometry x="1239" y="295" width="60" height="30" as="geometry"/>
                </mxCell>
                <mxCell id="32" value="&lt;font style=&quot;font-size: 19px&quot;&gt;нет&lt;/font&gt;" style="text;html=1;strokeColor=none;fillColor=none;align=center;verticalAlign=middle;whiteSpace=wrap;rounded=0;" parent="1" vertex="1">
                    <mxGeometry x="1119" y="400" width="50" height="30" as="geometry"/>
                </mxCell>
                <mxCell id="38" value="" style="edgeStyle=none;html=1;fontSize=20;" parent="1" source="oNZS9YOW7AetctRq5CVd-51" target="37" edge="1">
                    <mxGeometry relative="1" as="geometry">
                        <mxPoint x="1191.5" y="749.9999999999998" as="sourcePoint"/>
                    </mxGeometry>
                </mxCell>
                <mxCell id="oNZS9YOW7AetctRq5CVd-52" value="" style="edgeStyle=none;html=1;" parent="1" source="35" target="oNZS9YOW7AetctRq5CVd-51" edge="1">
                    <mxGeometry relative="1" as="geometry"/>
                </mxCell>
                <mxCell id="35" value="По желанию строит из ресурсов здание" style="whiteSpace=wrap;html=1;rounded=0;" parent="1" vertex="1">
                    <mxGeometry x="1119" y="550" width="145" height="70" as="geometry"/>
                </mxCell>
                <mxCell id="40" value="" style="edgeStyle=none;html=1;fontSize=20;" parent="1" source="37" target="39" edge="1">
                    <mxGeometry relative="1" as="geometry"/>
                </mxCell>
                <mxCell id="37" value="Нажимает &quot;Готов&quot;" style="whiteSpace=wrap;html=1;rounded=0;" parent="1" vertex="1">
                    <mxGeometry x="1119" y="770" width="145" height="70" as="geometry"/>
                </mxCell>
                <mxCell id="39" value="Когда все готовы, Главным строителем становится следующий игрок" style="whiteSpace=wrap;html=1;rounded=0;" parent="1" vertex="1">
                    <mxGeometry x="1119" y="870" width="145" height="70" as="geometry"/>
                </mxCell>
                <mxCell id="41" value="" style="endArrow=classic;html=1;fontSize=20;" parent="1" source="39" target="27" edge="1">
                    <mxGeometry width="50" height="50" relative="1" as="geometry">
                        <mxPoint x="970" y="740" as="sourcePoint"/>
                        <mxPoint x="1020" y="690" as="targetPoint"/>
                        <Array as="points">
                            <mxPoint x="1070" y="950"/>
                            <mxPoint x="1070" y="390"/>
                        </Array>
                    </mxGeometry>
                </mxCell>
                <mxCell id="45" value="" style="edgeStyle=none;html=1;fontSize=20;" parent="1" source="42" target="44" edge="1">
                    <mxGeometry relative="1" as="geometry"/>
                </mxCell>
                <mxCell id="42" value="Подсчет очков&amp;nbsp;" style="whiteSpace=wrap;html=1;rounded=0;" parent="1" vertex="1">
                    <mxGeometry x="895" y="465" width="120" height="60" as="geometry"/>
                </mxCell>
                <mxCell id="49" value="" style="edgeStyle=none;html=1;fontSize=20;" parent="1" source="44" target="48" edge="1">
                    <mxGeometry relative="1" as="geometry"/>
                </mxCell>
                <mxCell id="44" value="Ожидание соперников" style="whiteSpace=wrap;html=1;rounded=0;" parent="1" vertex="1">
                    <mxGeometry x="895" y="585" width="120" height="60" as="geometry"/>
                </mxCell>
                <mxCell id="46" value="&lt;font style=&quot;font-size: 19px&quot;&gt;нет&lt;/font&gt;" style="text;html=1;strokeColor=none;fillColor=none;align=center;verticalAlign=middle;whiteSpace=wrap;rounded=0;" parent="1" vertex="1">
                    <mxGeometry x="910" y="400" width="50" height="30" as="geometry"/>
                </mxCell>
                <mxCell id="51" value="" style="edgeStyle=none;html=1;" parent="1" source="48" target="50" edge="1">
                    <mxGeometry relative="1" as="geometry"/>
                </mxCell>
                <mxCell id="48" value="Показ результатов" style="whiteSpace=wrap;html=1;rounded=0;" parent="1" vertex="1">
                    <mxGeometry x="895" y="710" width="120" height="60" as="geometry"/>
                </mxCell>
                <mxCell id="50" value="Конец игры" style="ellipse;whiteSpace=wrap;html=1;" parent="1" vertex="1">
                    <mxGeometry x="895" y="810" width="120" height="80" as="geometry"/>
                </mxCell>
                <mxCell id="oNZS9YOW7AetctRq5CVd-51" value="Выполнняется механика здания (при наличии)" style="whiteSpace=wrap;html=1;rounded=0;" parent="1" vertex="1">
                    <mxGeometry x="1119" y="650" width="145" height="70" as="geometry"/>
                </mxCell>
            </root>
        </mxGraphModel>
    </diagram>
    <diagram id="dageAju_qjv-vqS8t6rB" name="Компоненты">
        <mxGraphModel dx="1002" dy="722" grid="1" gridSize="10" guides="1" tooltips="1" connect="1" arrows="1" fold="1" page="1" pageScale="1" pageWidth="827" pageHeight="1169" math="0" shadow="0">
            <root>
                <mxCell id="N_-rk9ujig6pJj3XQfPJ-0"/>
                <mxCell id="N_-rk9ujig6pJj3XQfPJ-1" parent="N_-rk9ujig6pJj3XQfPJ-0"/>
                <mxCell id="N_-rk9ujig6pJj3XQfPJ-63" value="" style="ellipse;shape=cloud;whiteSpace=wrap;html=1;fontSize=11;" parent="N_-rk9ujig6pJj3XQfPJ-1" vertex="1">
                    <mxGeometry y="80" width="145" height="300" as="geometry"/>
                </mxCell>
                <mxCell id="N_-rk9ujig6pJj3XQfPJ-2" value="Игрок N" style="shape=umlActor;verticalLabelPosition=bottom;verticalAlign=top;html=1;" parent="N_-rk9ujig6pJj3XQfPJ-1" vertex="1">
                    <mxGeometry x="50" y="280" width="30" height="60" as="geometry"/>
                </mxCell>
                <mxCell id="N_-rk9ujig6pJj3XQfPJ-4" value="" style="html=1;points=[];perimeter=orthogonalPerimeter;" parent="N_-rk9ujig6pJj3XQfPJ-1" vertex="1">
                    <mxGeometry x="155" y="60" width="10" height="410" as="geometry"/>
                </mxCell>
                <mxCell id="N_-rk9ujig6pJj3XQfPJ-27" value="Игрок 1" style="shape=umlActor;verticalLabelPosition=bottom;verticalAlign=top;html=1;" parent="N_-rk9ujig6pJj3XQfPJ-1" vertex="1">
                    <mxGeometry x="50" y="140" width="30" height="60" as="geometry"/>
                </mxCell>
                <mxCell id="N_-rk9ujig6pJj3XQfPJ-28" value="API (Backend)" style="text;html=1;align=center;verticalAlign=middle;resizable=0;points=[];autosize=1;strokeColor=none;fillColor=none;fontSize=21;fontStyle=1" parent="N_-rk9ujig6pJj3XQfPJ-1" vertex="1">
                    <mxGeometry x="490" y="15" width="160" height="30" as="geometry"/>
                </mxCell>
                <mxCell id="N_-rk9ujig6pJj3XQfPJ-29" value="" style="endArrow=none;startArrow=none;endFill=0;startFill=0;endSize=8;html=1;verticalAlign=bottom;labelBackgroundColor=none;strokeWidth=3;fontSize=21;entryX=0;entryY=0.295;entryDx=0;entryDy=0;entryPerimeter=0;" parent="N_-rk9ujig6pJj3XQfPJ-1" target="N_-rk9ujig6pJj3XQfPJ-4" edge="1">
                    <mxGeometry width="160" relative="1" as="geometry">
                        <mxPoint x="90" y="180" as="sourcePoint"/>
                        <mxPoint x="250" y="180" as="targetPoint"/>
                    </mxGeometry>
                </mxCell>
                <mxCell id="N_-rk9ujig6pJj3XQfPJ-30" value="&lt;font style=&quot;font-size: 11px&quot;&gt;кликает&lt;/font&gt;" style="edgeLabel;html=1;align=center;verticalAlign=middle;resizable=0;points=[];fontSize=21;" parent="N_-rk9ujig6pJj3XQfPJ-29" connectable="0" vertex="1">
                    <mxGeometry x="-0.1065" y="-3" relative="1" as="geometry">
                        <mxPoint y="17" as="offset"/>
                    </mxGeometry>
                </mxCell>
                <mxCell id="N_-rk9ujig6pJj3XQfPJ-31" value="" style="html=1;points=[];perimeter=orthogonalPerimeter;fontSize=11;" parent="N_-rk9ujig6pJj3XQfPJ-1" vertex="1">
                    <mxGeometry x="420" y="60" width="10" height="410" as="geometry"/>
                </mxCell>
                <mxCell id="N_-rk9ujig6pJj3XQfPJ-32" value="UI (FrontEnd)" style="text;html=1;align=center;verticalAlign=middle;resizable=0;points=[];autosize=1;strokeColor=none;fillColor=none;fontSize=21;fontStyle=1" parent="N_-rk9ujig6pJj3XQfPJ-1" vertex="1">
                    <mxGeometry x="90" y="15" width="150" height="30" as="geometry"/>
                </mxCell>
                <mxCell id="N_-rk9ujig6pJj3XQfPJ-35" value="" style="endArrow=none;startArrow=none;endFill=0;startFill=0;endSize=8;html=1;verticalAlign=bottom;labelBackgroundColor=none;strokeWidth=3;fontSize=21;entryX=0;entryY=0.295;entryDx=0;entryDy=0;entryPerimeter=0;" parent="N_-rk9ujig6pJj3XQfPJ-1" edge="1">
                    <mxGeometry width="160" relative="1" as="geometry">
                        <mxPoint x="90" y="299.79" as="sourcePoint"/>
                        <mxPoint x="155" y="300.74000000000007" as="targetPoint"/>
                    </mxGeometry>
                </mxCell>
                <mxCell id="N_-rk9ujig6pJj3XQfPJ-36" value="&lt;font style=&quot;font-size: 11px&quot;&gt;кликает&lt;/font&gt;" style="edgeLabel;html=1;align=center;verticalAlign=middle;resizable=0;points=[];fontSize=21;" parent="N_-rk9ujig6pJj3XQfPJ-35" connectable="0" vertex="1">
                    <mxGeometry x="-0.1065" y="-3" relative="1" as="geometry">
                        <mxPoint y="17" as="offset"/>
                    </mxGeometry>
                </mxCell>
                <mxCell id="N_-rk9ujig6pJj3XQfPJ-37" value="&amp;nbsp; &amp;nbsp; &amp;nbsp;Поставить дерево&amp;nbsp; на клетку 3х2" style="html=1;verticalAlign=bottom;labelBackgroundColor=none;endArrow=block;endFill=1;endSize=6;align=left;fontSize=11;" parent="N_-rk9ujig6pJj3XQfPJ-1" edge="1">
                    <mxGeometry x="-1" relative="1" as="geometry">
                        <mxPoint x="165" y="90" as="sourcePoint"/>
                        <mxPoint x="410" y="90" as="targetPoint"/>
                    </mxGeometry>
                </mxCell>
                <mxCell id="N_-rk9ujig6pJj3XQfPJ-42" value="Ответ: Ошибка - Клетка занята" style="endArrow=none;html=1;rounded=0;align=center;verticalAlign=bottom;endFill=0;labelBackgroundColor=none;fontSize=11;startArrow=block;startFill=1;" parent="N_-rk9ujig6pJj3XQfPJ-1" edge="1">
                    <mxGeometry relative="1" as="geometry">
                        <mxPoint x="165" y="130" as="sourcePoint"/>
                        <mxPoint x="410" y="130" as="targetPoint"/>
                    </mxGeometry>
                </mxCell>
                <mxCell id="N_-rk9ujig6pJj3XQfPJ-43" value="" style="resizable=0;html=1;align=center;verticalAlign=top;labelBackgroundColor=none;fontSize=11;" parent="N_-rk9ujig6pJj3XQfPJ-42" connectable="0" vertex="1">
                    <mxGeometry relative="1" as="geometry"/>
                </mxCell>
                <mxCell id="N_-rk9ujig6pJj3XQfPJ-44" value="Сообщения о событиях" style="html=1;verticalAlign=bottom;labelBackgroundColor=none;endArrow=open;endFill=0;fontSize=11;startArrow=block;startFill=1;" parent="N_-rk9ujig6pJj3XQfPJ-1" edge="1">
                    <mxGeometry width="160" relative="1" as="geometry">
                        <mxPoint x="173.5" y="264.57" as="sourcePoint"/>
                        <mxPoint x="413.5" y="264.57" as="targetPoint"/>
                    </mxGeometry>
                </mxCell>
                <mxCell id="N_-rk9ujig6pJj3XQfPJ-58" value="Game.py" style="html=1;align=center;verticalAlign=top;rounded=1;absoluteArcSize=1;arcSize=20;dashed=1;fontSize=11;" parent="N_-rk9ujig6pJj3XQfPJ-1" vertex="1">
                    <mxGeometry x="450" y="70" width="360" height="70" as="geometry"/>
                </mxCell>
                <mxCell id="N_-rk9ujig6pJj3XQfPJ-64" value="Браузер" style="text;html=1;align=center;verticalAlign=middle;resizable=0;points=[];autosize=1;strokeColor=none;fillColor=none;fontSize=11;" parent="N_-rk9ujig6pJj3XQfPJ-1" vertex="1">
                    <mxGeometry x="130" y="40" width="60" height="20" as="geometry"/>
                </mxCell>
                <mxCell id="N_-rk9ujig6pJj3XQfPJ-65" value="web-сервер" style="text;html=1;align=center;verticalAlign=middle;resizable=0;points=[];autosize=1;strokeColor=none;fillColor=none;fontSize=11;" parent="N_-rk9ujig6pJj3XQfPJ-1" vertex="1">
                    <mxGeometry x="385" y="30" width="80" height="20" as="geometry"/>
                </mxCell>
                <mxCell id="1Qz4V8k8oQhYgV7dYiRY-0" value="Module: TinyTown.py" style="shape=folder;fontStyle=1;spacingTop=10;tabWidth=40;tabHeight=14;tabPosition=left;html=1;fontSize=11;" parent="N_-rk9ujig6pJj3XQfPJ-1" vertex="1">
                    <mxGeometry x="450" y="170" width="180" height="120" as="geometry"/>
                </mxCell>
            </root>
        </mxGraphModel>
    </diagram>
    <diagram id="6aYuwhBhBgXLtHrv7kN-" name="Архитектура">
        <mxGraphModel dx="996" dy="722" grid="1" gridSize="10" guides="1" tooltips="1" connect="1" arrows="1" fold="1" page="1" pageScale="1" pageWidth="827" pageHeight="1169" math="0" shadow="0">
            <root>
                <mxCell id="llxJq95F6SeN7Ijfh6kS-0"/>
                <mxCell id="llxJq95F6SeN7Ijfh6kS-1" parent="llxJq95F6SeN7Ijfh6kS-0"/>
                <mxCell id="llxJq95F6SeN7Ijfh6kS-3" value="&lt;p style=&quot;margin: 0px ; margin-top: 4px ; text-align: center ; text-decoration: underline&quot;&gt;&lt;b&gt;Object:GameState&lt;/b&gt;&lt;/p&gt;&lt;hr&gt;&lt;p style=&quot;margin: 0px ; margin-left: 8px&quot;&gt;turn = 0&lt;br&gt;currentPlayer = 3&lt;br&gt;players = {&lt;br&gt;&amp;nbsp; &amp;nbsp;1: &quot;Foo&quot;,&lt;br&gt;&amp;nbsp; &amp;nbsp;2: &quot;Bar&quot;,&lt;/p&gt;&lt;p style=&quot;margin: 0px ; margin-left: 8px&quot;&gt;&amp;nbsp; &amp;nbsp;3: &quot;LOL&quot;&lt;br&gt;}&lt;/p&gt;&lt;p style=&quot;margin: 0px ; margin-left: 8px&quot;&gt;currentBuildingsRow=[ ]&lt;/p&gt;" style="verticalAlign=top;align=left;overflow=fill;fontSize=12;fontFamily=Helvetica;html=1;" parent="llxJq95F6SeN7Ijfh6kS-1" vertex="1">
                    <mxGeometry x="130" y="40" width="160" height="150" as="geometry"/>
                </mxCell>
                <mxCell id="llxJq95F6SeN7Ijfh6kS-4" value="&lt;p style=&quot;margin: 0px ; margin-top: 4px ; text-align: center ; text-decoration: underline&quot;&gt;&lt;b&gt;Object:Player&lt;/b&gt;&lt;/p&gt;&lt;hr&gt;&lt;p style=&quot;margin: 0px ; margin-left: 8px&quot;&gt;board = [[0,0,0,0]...]&lt;br&gt;score = 1337&lt;/p&gt;&lt;p style=&quot;margin: 0px ; margin-left: 8px&quot;&gt;&lt;span&gt;monument_type = smth&lt;/span&gt;&lt;br&gt;&lt;/p&gt;&lt;p style=&quot;margin: 0px ; margin-left: 8px&quot;&gt;&lt;br&gt;&lt;/p&gt;" style="verticalAlign=top;align=left;overflow=fill;fontSize=12;fontFamily=Helvetica;html=1;" parent="llxJq95F6SeN7Ijfh6kS-1" vertex="1">
                    <mxGeometry x="222" y="683.5" width="160" height="100" as="geometry"/>
                </mxCell>
                <mxCell id="-xmkDLUb5mnioVWZtcHe-19" value="" style="edgeStyle=none;html=1;" parent="llxJq95F6SeN7Ijfh6kS-1" source="-xmkDLUb5mnioVWZtcHe-1" target="-xmkDLUb5mnioVWZtcHe-15" edge="1">
                    <mxGeometry relative="1" as="geometry"/>
                </mxCell>
                <mxCell id="-xmkDLUb5mnioVWZtcHe-40" style="edgeStyle=none;html=1;exitX=0;exitY=0.5;exitDx=0;exitDy=0;entryX=1;entryY=0.5;entryDx=0;entryDy=0;" parent="llxJq95F6SeN7Ijfh6kS-1" source="-xmkDLUb5mnioVWZtcHe-1" target="-xmkDLUb5mnioVWZtcHe-23" edge="1">
                    <mxGeometry relative="1" as="geometry">
                        <mxPoint x="324.9963503649635" y="413.5" as="targetPoint"/>
                    </mxGeometry>
                </mxCell>
                <mxCell id="-xmkDLUb5mnioVWZtcHe-1" value="object Bulilding" style="swimlane;fontStyle=0;align=center;verticalAlign=top;childLayout=stackLayout;horizontal=1;startSize=55;horizontalStack=0;resizeParent=1;resizeParentMax=0;resizeLast=0;collapsible=0;marginBottom=0;html=1;" parent="llxJq95F6SeN7Ijfh6kS-1" vertex="1">
                    <mxGeometry x="363.5" y="256.5" width="140" height="103" as="geometry"/>
                </mxCell>
                <mxCell id="-xmkDLUb5mnioVWZtcHe-5" value="type" style="text;html=1;strokeColor=none;fillColor=none;align=center;verticalAlign=middle;spacingLeft=4;spacingRight=4;overflow=hidden;rotatable=0;points=[[0,0.5],[1,0.5]];portConstraint=eastwest;" parent="-xmkDLUb5mnioVWZtcHe-1" vertex="1">
                    <mxGeometry y="55" width="140" height="20" as="geometry"/>
                </mxCell>
                <mxCell id="-xmkDLUb5mnioVWZtcHe-6" value="" style="line;strokeWidth=1;fillColor=none;align=left;verticalAlign=middle;spacingTop=-1;spacingLeft=3;spacingRight=3;rotatable=0;labelPosition=right;points=[];portConstraint=eastwest;" parent="-xmkDLUb5mnioVWZtcHe-1" vertex="1">
                    <mxGeometry y="75" width="140" height="8" as="geometry"/>
                </mxCell>
                <mxCell id="-xmkDLUb5mnioVWZtcHe-7" value="features" style="text;html=1;strokeColor=none;fillColor=none;align=center;verticalAlign=middle;spacingLeft=4;spacingRight=4;overflow=hidden;rotatable=0;points=[[0,0.5],[1,0.5]];portConstraint=eastwest;" parent="-xmkDLUb5mnioVWZtcHe-1" vertex="1">
                    <mxGeometry y="83" width="140" height="20" as="geometry"/>
                </mxCell>
                <mxCell id="-xmkDLUb5mnioVWZtcHe-41" style="edgeStyle=none;html=1;exitX=0;exitY=0.5;exitDx=0;exitDy=0;" parent="llxJq95F6SeN7Ijfh6kS-1" target="-xmkDLUb5mnioVWZtcHe-5" edge="1">
                    <mxGeometry relative="1" as="geometry">
                        <mxPoint x="600" y="358.5" as="sourcePoint"/>
                    </mxGeometry>
                </mxCell>
                <mxCell id="-xmkDLUb5mnioVWZtcHe-10" value="&amp;lt;enum&amp;gt; Cottage, factory, ..." style="rounded=0;whiteSpace=wrap;html=1;" parent="llxJq95F6SeN7Ijfh6kS-1" vertex="1">
                    <mxGeometry x="560" y="320" width="250" height="50" as="geometry"/>
                </mxCell>
                <mxCell id="-xmkDLUb5mnioVWZtcHe-13" value="value" style="text;html=1;strokeColor=none;fillColor=none;align=center;verticalAlign=middle;spacingLeft=4;spacingRight=4;overflow=hidden;rotatable=0;points=[[0,0.5],[1,0.5]];portConstraint=eastwest;" parent="llxJq95F6SeN7Ijfh6kS-1" vertex="1">
                    <mxGeometry x="363.5" y="359.5" width="140" height="20" as="geometry"/>
                </mxCell>
                <mxCell id="-xmkDLUb5mnioVWZtcHe-45" style="edgeStyle=none;html=1;exitX=0;exitY=0.5;exitDx=0;exitDy=0;entryX=1;entryY=0.5;entryDx=0;entryDy=0;" parent="llxJq95F6SeN7Ijfh6kS-1" source="-xmkDLUb5mnioVWZtcHe-15" target="llxJq95F6SeN7Ijfh6kS-3" edge="1">
                    <mxGeometry relative="1" as="geometry"/>
                </mxCell>
                <mxCell id="-xmkDLUb5mnioVWZtcHe-15" value="object BulildingRow" style="swimlane;fontStyle=0;align=center;verticalAlign=top;childLayout=stackLayout;horizontal=1;startSize=55;horizontalStack=0;resizeParent=1;resizeParentMax=0;resizeLast=0;collapsible=0;marginBottom=0;html=1;" parent="llxJq95F6SeN7Ijfh6kS-1" vertex="1">
                    <mxGeometry x="363.5" y="73.5" width="140" height="75" as="geometry"/>
                </mxCell>
                <mxCell id="-xmkDLUb5mnioVWZtcHe-16" value="Buldings_id" style="text;html=1;strokeColor=none;fillColor=none;align=center;verticalAlign=middle;spacingLeft=4;spacingRight=4;overflow=hidden;rotatable=0;points=[[0,0.5],[1,0.5]];portConstraint=eastwest;" parent="-xmkDLUb5mnioVWZtcHe-15" vertex="1">
                    <mxGeometry y="55" width="140" height="20" as="geometry"/>
                </mxCell>
                <mxCell id="-xmkDLUb5mnioVWZtcHe-20" value="id" style="text;html=1;strokeColor=none;fillColor=none;align=center;verticalAlign=middle;spacingLeft=4;spacingRight=4;overflow=hidden;rotatable=0;points=[[0,0.5],[1,0.5]];portConstraint=eastwest;" parent="llxJq95F6SeN7Ijfh6kS-1" vertex="1">
                    <mxGeometry x="363.5" y="379.5" width="140" height="20" as="geometry"/>
                </mxCell>
                <mxCell id="-xmkDLUb5mnioVWZtcHe-42" style="edgeStyle=none;html=1;exitX=0;exitY=1;exitDx=0;exitDy=0;entryX=0.25;entryY=0;entryDx=0;entryDy=0;" parent="llxJq95F6SeN7Ijfh6kS-1" source="-xmkDLUb5mnioVWZtcHe-23" target="-xmkDLUb5mnioVWZtcHe-35" edge="1">
                    <mxGeometry relative="1" as="geometry"/>
                </mxCell>
                <mxCell id="-xmkDLUb5mnioVWZtcHe-23" value="object &lt;br&gt;BulildingOnBoard" style="swimlane;fontStyle=0;align=center;verticalAlign=top;childLayout=stackLayout;horizontal=1;startSize=55;horizontalStack=0;resizeParent=1;resizeParentMax=0;resizeLast=0;collapsible=0;marginBottom=0;html=1;" parent="llxJq95F6SeN7Ijfh6kS-1" vertex="1">
                    <mxGeometry x="160" y="270.5" width="140" height="63" as="geometry"/>
                </mxCell>
                <mxCell id="-xmkDLUb5mnioVWZtcHe-25" value="" style="line;strokeWidth=1;fillColor=none;align=left;verticalAlign=middle;spacingTop=-1;spacingLeft=3;spacingRight=3;rotatable=0;labelPosition=right;points=[];portConstraint=eastwest;" parent="-xmkDLUb5mnioVWZtcHe-23" vertex="1">
                    <mxGeometry y="55" width="140" height="8" as="geometry"/>
                </mxCell>
                <mxCell id="-xmkDLUb5mnioVWZtcHe-34" value="" style="edgeStyle=none;html=1;" parent="llxJq95F6SeN7Ijfh6kS-1" source="-xmkDLUb5mnioVWZtcHe-27" target="-xmkDLUb5mnioVWZtcHe-33" edge="1">
                    <mxGeometry relative="1" as="geometry"/>
                </mxCell>
                <mxCell id="-xmkDLUb5mnioVWZtcHe-27" value="object Resource" style="swimlane;fontStyle=0;align=center;verticalAlign=top;childLayout=stackLayout;horizontal=1;startSize=55;horizontalStack=0;resizeParent=1;resizeParentMax=0;resizeLast=0;collapsible=0;marginBottom=0;html=1;" parent="llxJq95F6SeN7Ijfh6kS-1" vertex="1">
                    <mxGeometry x="394" y="453.5" width="140" height="83" as="geometry"/>
                </mxCell>
                <mxCell id="-xmkDLUb5mnioVWZtcHe-28" value="type" style="text;html=1;strokeColor=none;fillColor=none;align=center;verticalAlign=middle;spacingLeft=4;spacingRight=4;overflow=hidden;rotatable=0;points=[[0,0.5],[1,0.5]];portConstraint=eastwest;" parent="-xmkDLUb5mnioVWZtcHe-27" vertex="1">
                    <mxGeometry y="55" width="140" height="20" as="geometry"/>
                </mxCell>
                <mxCell id="-xmkDLUb5mnioVWZtcHe-29" value="" style="line;strokeWidth=1;fillColor=none;align=left;verticalAlign=middle;spacingTop=-1;spacingLeft=3;spacingRight=3;rotatable=0;labelPosition=right;points=[];portConstraint=eastwest;" parent="-xmkDLUb5mnioVWZtcHe-27" vertex="1">
                    <mxGeometry y="75" width="140" height="8" as="geometry"/>
                </mxCell>
                <mxCell id="-xmkDLUb5mnioVWZtcHe-32" value="" style="edgeStyle=none;html=1;" parent="llxJq95F6SeN7Ijfh6kS-1" source="-xmkDLUb5mnioVWZtcHe-31" edge="1">
                    <mxGeometry relative="1" as="geometry">
                        <mxPoint x="524" y="521.5" as="targetPoint"/>
                    </mxGeometry>
                </mxCell>
                <mxCell id="-xmkDLUb5mnioVWZtcHe-31" value="&amp;lt;enum&amp;gt; Wood, glass, ..." style="rounded=0;whiteSpace=wrap;html=1;" parent="llxJq95F6SeN7Ijfh6kS-1" vertex="1">
                    <mxGeometry x="554" y="486.5" width="250" height="50" as="geometry"/>
                </mxCell>
                <mxCell id="-xmkDLUb5mnioVWZtcHe-43" style="edgeStyle=none;html=1;exitX=0.25;exitY=1;exitDx=0;exitDy=0;entryX=0.697;entryY=-0.022;entryDx=0;entryDy=0;entryPerimeter=0;" parent="llxJq95F6SeN7Ijfh6kS-1" source="-xmkDLUb5mnioVWZtcHe-33" target="-xmkDLUb5mnioVWZtcHe-35" edge="1">
                    <mxGeometry relative="1" as="geometry">
                        <mxPoint x="204" y="563.5" as="targetPoint"/>
                    </mxGeometry>
                </mxCell>
                <mxCell id="-xmkDLUb5mnioVWZtcHe-33" value="object ResourseOnBoard" style="whiteSpace=wrap;html=1;verticalAlign=top;fontStyle=0;startSize=55;" parent="llxJq95F6SeN7Ijfh6kS-1" vertex="1">
                    <mxGeometry x="210" y="460.5" width="136" height="40" as="geometry"/>
                </mxCell>
                <mxCell id="-xmkDLUb5mnioVWZtcHe-44" style="edgeStyle=none;html=1;exitX=0.5;exitY=1;exitDx=0;exitDy=0;" parent="llxJq95F6SeN7Ijfh6kS-1" source="-xmkDLUb5mnioVWZtcHe-35" target="llxJq95F6SeN7Ijfh6kS-4" edge="1">
                    <mxGeometry relative="1" as="geometry"/>
                </mxCell>
                <mxCell id="-xmkDLUb5mnioVWZtcHe-35" value="Class&lt;br&gt;Board" style="rounded=0;whiteSpace=wrap;html=1;" parent="llxJq95F6SeN7Ijfh6kS-1" vertex="1">
                    <mxGeometry x="150" y="563.5" width="120" height="40" as="geometry"/>
                </mxCell>
                <mxCell id="e-xL-JN9Ee3PEmST3Y5N-1" style="edgeStyle=none;html=1;exitX=0;exitY=0.5;exitDx=0;exitDy=0;exitPerimeter=0;" edge="1" parent="llxJq95F6SeN7Ijfh6kS-1" source="e-xL-JN9Ee3PEmST3Y5N-0" target="-xmkDLUb5mnioVWZtcHe-15">
                    <mxGeometry relative="1" as="geometry"/>
                </mxCell>
                <mxCell id="e-xL-JN9Ee3PEmST3Y5N-0" value="generate()" style="shape=note2;boundedLbl=1;whiteSpace=wrap;html=1;size=25;verticalAlign=top;align=center;" vertex="1" parent="llxJq95F6SeN7Ijfh6kS-1">
                    <mxGeometry x="534" y="73.5" width="120" height="60" as="geometry"/>
                </mxCell>
            </root>
        </mxGraphModel>
    </diagram>
</mxfile>